G75*
%MOIN*%
%OFA0B0*%
%FSLAX25Y25*%
%IPPOS*%
%LPD*%
%AMOC8*
5,1,8,0,0,1.08239X$1,22.5*
%
%ADD10C,0.00800*%
%ADD11C,0.00100*%
D10*
X0014093Y0016465D02*
X0101293Y0016465D01*
X0101293Y0052865D01*
X0014093Y0052865D01*
X0014093Y0016465D01*
X0092893Y0022865D02*
X0094093Y0020865D01*
X0095293Y0022865D01*
X0092893Y0022865D01*
D11*
X0022943Y0021715D02*
X0022110Y0021715D01*
X0022110Y0021048D01*
X0022610Y0021048D01*
X0022645Y0021046D01*
X0022679Y0021041D01*
X0022713Y0021032D01*
X0022745Y0021019D01*
X0022777Y0021003D01*
X0022806Y0020984D01*
X0022833Y0020962D01*
X0022857Y0020938D01*
X0022879Y0020911D01*
X0022898Y0020882D01*
X0022914Y0020850D01*
X0022927Y0020818D01*
X0022936Y0020784D01*
X0022941Y0020750D01*
X0022943Y0020715D01*
X0022943Y0020548D01*
X0022941Y0020513D01*
X0022936Y0020479D01*
X0022927Y0020445D01*
X0022914Y0020413D01*
X0022898Y0020382D01*
X0022879Y0020352D01*
X0022857Y0020325D01*
X0022833Y0020301D01*
X0022806Y0020279D01*
X0022777Y0020260D01*
X0022745Y0020244D01*
X0022713Y0020231D01*
X0022679Y0020222D01*
X0022645Y0020217D01*
X0022610Y0020215D01*
X0022110Y0020215D01*
X0021086Y0020215D02*
X0021503Y0021715D01*
X0020670Y0021715D01*
X0020670Y0021548D01*
M02*
