G75*
%MOIN*%
%OFA0B0*%
%FSLAX25Y25*%
%IPPOS*%
%LPD*%
%AMOC8*
5,1,8,0,0,1.08239X$1,22.5*
%
%ADD10C,0.00000*%
D10*
X0005706Y0001400D02*
X0005706Y0017148D01*
X0001474Y0017148D01*
X0001474Y0237620D01*
X0037891Y0237620D01*
X0037893Y0237452D01*
X0037899Y0237285D01*
X0037909Y0237117D01*
X0037924Y0236950D01*
X0037942Y0236783D01*
X0037964Y0236617D01*
X0037991Y0236451D01*
X0038021Y0236286D01*
X0038056Y0236122D01*
X0038094Y0235959D01*
X0038137Y0235796D01*
X0038183Y0235635D01*
X0038233Y0235475D01*
X0038288Y0235316D01*
X0038346Y0235159D01*
X0038407Y0235003D01*
X0038473Y0234848D01*
X0038542Y0234695D01*
X0038616Y0234544D01*
X0038692Y0234395D01*
X0038773Y0234248D01*
X0038856Y0234103D01*
X0038944Y0233959D01*
X0039035Y0233818D01*
X0039129Y0233680D01*
X0039227Y0233543D01*
X0039328Y0233409D01*
X0039432Y0233277D01*
X0039539Y0233148D01*
X0039650Y0233022D01*
X0039763Y0232899D01*
X0039879Y0232778D01*
X0039999Y0232660D01*
X0040121Y0232545D01*
X0040246Y0232433D01*
X0040374Y0232324D01*
X0040504Y0232218D01*
X0040637Y0232116D01*
X0040772Y0232016D01*
X0040910Y0231920D01*
X0041050Y0231828D01*
X0041192Y0231739D01*
X0041336Y0231653D01*
X0041482Y0231571D01*
X0041631Y0231492D01*
X0041781Y0231418D01*
X0041933Y0231346D01*
X0042086Y0231279D01*
X0042242Y0231215D01*
X0042398Y0231155D01*
X0042556Y0231099D01*
X0042716Y0231047D01*
X0042876Y0230998D01*
X0043038Y0230954D01*
X0043201Y0230914D01*
X0043365Y0230877D01*
X0043530Y0230845D01*
X0043695Y0230816D01*
X0043861Y0230792D01*
X0044027Y0230771D01*
X0044194Y0230755D01*
X0044362Y0230743D01*
X0044529Y0230735D01*
X0044697Y0230731D01*
X0044865Y0230731D01*
X0045033Y0230735D01*
X0045200Y0230743D01*
X0045368Y0230755D01*
X0045535Y0230771D01*
X0045701Y0230792D01*
X0045867Y0230816D01*
X0046032Y0230845D01*
X0046197Y0230877D01*
X0046361Y0230914D01*
X0046524Y0230954D01*
X0046686Y0230998D01*
X0046846Y0231047D01*
X0047006Y0231099D01*
X0047164Y0231155D01*
X0047320Y0231215D01*
X0047476Y0231279D01*
X0047629Y0231346D01*
X0047781Y0231418D01*
X0047931Y0231492D01*
X0048080Y0231571D01*
X0048226Y0231653D01*
X0048370Y0231739D01*
X0048512Y0231828D01*
X0048652Y0231920D01*
X0048790Y0232016D01*
X0048925Y0232116D01*
X0049058Y0232218D01*
X0049188Y0232324D01*
X0049316Y0232433D01*
X0049441Y0232545D01*
X0049563Y0232660D01*
X0049683Y0232778D01*
X0049799Y0232899D01*
X0049912Y0233022D01*
X0050023Y0233148D01*
X0050130Y0233277D01*
X0050234Y0233409D01*
X0050335Y0233543D01*
X0050433Y0233680D01*
X0050527Y0233818D01*
X0050618Y0233959D01*
X0050706Y0234103D01*
X0050789Y0234248D01*
X0050870Y0234395D01*
X0050946Y0234544D01*
X0051020Y0234695D01*
X0051089Y0234848D01*
X0051155Y0235003D01*
X0051216Y0235159D01*
X0051274Y0235316D01*
X0051329Y0235475D01*
X0051379Y0235635D01*
X0051425Y0235796D01*
X0051468Y0235959D01*
X0051506Y0236122D01*
X0051541Y0236286D01*
X0051571Y0236451D01*
X0051598Y0236617D01*
X0051620Y0236783D01*
X0051638Y0236950D01*
X0051653Y0237117D01*
X0051663Y0237285D01*
X0051669Y0237452D01*
X0051671Y0237620D01*
X0088088Y0237620D01*
X0088088Y0017148D01*
X0083856Y0017148D01*
X0083856Y0001400D01*
X0069289Y0001400D01*
X0069289Y0012817D01*
X0069288Y0012817D02*
X0069285Y0012914D01*
X0069277Y0013011D01*
X0069265Y0013108D01*
X0069249Y0013203D01*
X0069230Y0013299D01*
X0069207Y0013393D01*
X0069180Y0013486D01*
X0069149Y0013578D01*
X0069114Y0013669D01*
X0069076Y0013759D01*
X0069035Y0013846D01*
X0068989Y0013932D01*
X0068941Y0014016D01*
X0068889Y0014098D01*
X0068834Y0014178D01*
X0068775Y0014256D01*
X0068714Y0014331D01*
X0068649Y0014404D01*
X0068582Y0014474D01*
X0068512Y0014541D01*
X0068439Y0014606D01*
X0068364Y0014667D01*
X0068286Y0014725D01*
X0068206Y0014781D01*
X0068124Y0014832D01*
X0068040Y0014881D01*
X0067954Y0014926D01*
X0067866Y0014968D01*
X0067777Y0015006D01*
X0067686Y0015040D01*
X0067594Y0015071D01*
X0067501Y0015098D01*
X0067406Y0015121D01*
X0067311Y0015141D01*
X0067215Y0015156D01*
X0067119Y0015168D01*
X0067022Y0015176D01*
X0066925Y0015180D01*
X0066828Y0015179D01*
X0066828Y0015180D02*
X0066735Y0015177D01*
X0066642Y0015169D01*
X0066549Y0015158D01*
X0066457Y0015143D01*
X0066366Y0015124D01*
X0066276Y0015101D01*
X0066186Y0015075D01*
X0066098Y0015046D01*
X0066011Y0015013D01*
X0065925Y0014976D01*
X0065841Y0014936D01*
X0065758Y0014893D01*
X0065678Y0014846D01*
X0065599Y0014796D01*
X0065522Y0014743D01*
X0065448Y0014687D01*
X0065376Y0014628D01*
X0065306Y0014566D01*
X0065239Y0014501D01*
X0065174Y0014434D01*
X0065113Y0014364D01*
X0065054Y0014292D01*
X0064998Y0014217D01*
X0064945Y0014141D01*
X0064895Y0014062D01*
X0064849Y0013981D01*
X0064806Y0013899D01*
X0064766Y0013814D01*
X0064729Y0013729D01*
X0064696Y0013641D01*
X0064667Y0013553D01*
X0064641Y0013463D01*
X0064619Y0013373D01*
X0064600Y0013282D01*
X0064586Y0013190D01*
X0064574Y0013097D01*
X0064567Y0013004D01*
X0064563Y0012911D01*
X0064564Y0012818D01*
X0064564Y0012817D02*
X0064564Y0001400D01*
X0005706Y0001400D01*
X0037891Y0237620D02*
X0037893Y0237452D01*
X0037899Y0237285D01*
X0037909Y0237117D01*
X0037924Y0236950D01*
X0037942Y0236783D01*
X0037964Y0236617D01*
X0037991Y0236451D01*
X0038021Y0236286D01*
X0038056Y0236122D01*
X0038094Y0235959D01*
X0038137Y0235796D01*
X0038183Y0235635D01*
X0038233Y0235475D01*
X0038288Y0235316D01*
X0038346Y0235159D01*
X0038407Y0235003D01*
X0038473Y0234848D01*
X0038542Y0234695D01*
X0038616Y0234544D01*
X0038692Y0234395D01*
X0038773Y0234248D01*
X0038856Y0234103D01*
X0038944Y0233959D01*
X0039035Y0233818D01*
X0039129Y0233680D01*
X0039227Y0233543D01*
X0039328Y0233409D01*
X0039432Y0233277D01*
X0039539Y0233148D01*
X0039650Y0233022D01*
X0039763Y0232899D01*
X0039879Y0232778D01*
X0039999Y0232660D01*
X0040121Y0232545D01*
X0040246Y0232433D01*
X0040374Y0232324D01*
X0040504Y0232218D01*
X0040637Y0232116D01*
X0040772Y0232016D01*
X0040910Y0231920D01*
X0041050Y0231828D01*
X0041192Y0231739D01*
X0041336Y0231653D01*
X0041482Y0231571D01*
X0041631Y0231492D01*
X0041781Y0231418D01*
X0041933Y0231346D01*
X0042086Y0231279D01*
X0042242Y0231215D01*
X0042398Y0231155D01*
X0042556Y0231099D01*
X0042716Y0231047D01*
X0042876Y0230998D01*
X0043038Y0230954D01*
X0043201Y0230914D01*
X0043365Y0230877D01*
X0043530Y0230845D01*
X0043695Y0230816D01*
X0043861Y0230792D01*
X0044027Y0230771D01*
X0044194Y0230755D01*
X0044362Y0230743D01*
X0044529Y0230735D01*
X0044697Y0230731D01*
X0044865Y0230731D01*
X0045033Y0230735D01*
X0045200Y0230743D01*
X0045368Y0230755D01*
X0045535Y0230771D01*
X0045701Y0230792D01*
X0045867Y0230816D01*
X0046032Y0230845D01*
X0046197Y0230877D01*
X0046361Y0230914D01*
X0046524Y0230954D01*
X0046686Y0230998D01*
X0046846Y0231047D01*
X0047006Y0231099D01*
X0047164Y0231155D01*
X0047320Y0231215D01*
X0047476Y0231279D01*
X0047629Y0231346D01*
X0047781Y0231418D01*
X0047931Y0231492D01*
X0048080Y0231571D01*
X0048226Y0231653D01*
X0048370Y0231739D01*
X0048512Y0231828D01*
X0048652Y0231920D01*
X0048790Y0232016D01*
X0048925Y0232116D01*
X0049058Y0232218D01*
X0049188Y0232324D01*
X0049316Y0232433D01*
X0049441Y0232545D01*
X0049563Y0232660D01*
X0049683Y0232778D01*
X0049799Y0232899D01*
X0049912Y0233022D01*
X0050023Y0233148D01*
X0050130Y0233277D01*
X0050234Y0233409D01*
X0050335Y0233543D01*
X0050433Y0233680D01*
X0050527Y0233818D01*
X0050618Y0233959D01*
X0050706Y0234103D01*
X0050789Y0234248D01*
X0050870Y0234395D01*
X0050946Y0234544D01*
X0051020Y0234695D01*
X0051089Y0234848D01*
X0051155Y0235003D01*
X0051216Y0235159D01*
X0051274Y0235316D01*
X0051329Y0235475D01*
X0051379Y0235635D01*
X0051425Y0235796D01*
X0051468Y0235959D01*
X0051506Y0236122D01*
X0051541Y0236286D01*
X0051571Y0236451D01*
X0051598Y0236617D01*
X0051620Y0236783D01*
X0051638Y0236950D01*
X0051653Y0237117D01*
X0051663Y0237285D01*
X0051669Y0237452D01*
X0051671Y0237620D01*
M02*
