G75*
%MOIN*%
%OFA0B0*%
%FSLAX25Y25*%
%IPPOS*%
%LPD*%
%AMOC8*
5,1,8,0,0,1.08239X$1,22.5*
%
%ADD10C,0.00000*%
D10*
X0001000Y0001000D02*
X0001000Y0291551D01*
X0201394Y0291551D01*
X0201787Y0291945D01*
X0201787Y0001000D01*
X0001000Y0001000D01*
X0015272Y0040370D02*
X0015274Y0040480D01*
X0015280Y0040590D01*
X0015290Y0040700D01*
X0015304Y0040809D01*
X0015322Y0040918D01*
X0015343Y0041026D01*
X0015369Y0041133D01*
X0015398Y0041239D01*
X0015432Y0041344D01*
X0015469Y0041448D01*
X0015510Y0041550D01*
X0015554Y0041651D01*
X0015602Y0041750D01*
X0015654Y0041848D01*
X0015709Y0041943D01*
X0015767Y0042036D01*
X0015829Y0042127D01*
X0015894Y0042216D01*
X0015962Y0042303D01*
X0016034Y0042387D01*
X0016108Y0042468D01*
X0016185Y0042547D01*
X0016265Y0042623D01*
X0016348Y0042695D01*
X0016433Y0042765D01*
X0016521Y0042832D01*
X0016611Y0042895D01*
X0016703Y0042955D01*
X0016797Y0043012D01*
X0016894Y0043066D01*
X0016992Y0043115D01*
X0017092Y0043162D01*
X0017194Y0043204D01*
X0017297Y0043243D01*
X0017401Y0043278D01*
X0017507Y0043310D01*
X0017613Y0043337D01*
X0017721Y0043361D01*
X0017829Y0043381D01*
X0017938Y0043397D01*
X0018048Y0043409D01*
X0018158Y0043417D01*
X0018268Y0043421D01*
X0018378Y0043421D01*
X0018488Y0043417D01*
X0018598Y0043409D01*
X0018708Y0043397D01*
X0018817Y0043381D01*
X0018925Y0043361D01*
X0019033Y0043337D01*
X0019139Y0043310D01*
X0019245Y0043278D01*
X0019349Y0043243D01*
X0019452Y0043204D01*
X0019554Y0043162D01*
X0019654Y0043115D01*
X0019752Y0043066D01*
X0019848Y0043012D01*
X0019943Y0042955D01*
X0020035Y0042895D01*
X0020125Y0042832D01*
X0020213Y0042765D01*
X0020298Y0042695D01*
X0020381Y0042623D01*
X0020461Y0042547D01*
X0020538Y0042468D01*
X0020612Y0042387D01*
X0020684Y0042303D01*
X0020752Y0042216D01*
X0020817Y0042127D01*
X0020879Y0042036D01*
X0020937Y0041943D01*
X0020992Y0041848D01*
X0021044Y0041750D01*
X0021092Y0041651D01*
X0021136Y0041550D01*
X0021177Y0041448D01*
X0021214Y0041344D01*
X0021248Y0041239D01*
X0021277Y0041133D01*
X0021303Y0041026D01*
X0021324Y0040918D01*
X0021342Y0040809D01*
X0021356Y0040700D01*
X0021366Y0040590D01*
X0021372Y0040480D01*
X0021374Y0040370D01*
X0021372Y0040260D01*
X0021366Y0040150D01*
X0021356Y0040040D01*
X0021342Y0039931D01*
X0021324Y0039822D01*
X0021303Y0039714D01*
X0021277Y0039607D01*
X0021248Y0039501D01*
X0021214Y0039396D01*
X0021177Y0039292D01*
X0021136Y0039190D01*
X0021092Y0039089D01*
X0021044Y0038990D01*
X0020992Y0038892D01*
X0020937Y0038797D01*
X0020879Y0038704D01*
X0020817Y0038613D01*
X0020752Y0038524D01*
X0020684Y0038437D01*
X0020612Y0038353D01*
X0020538Y0038272D01*
X0020461Y0038193D01*
X0020381Y0038117D01*
X0020298Y0038045D01*
X0020213Y0037975D01*
X0020125Y0037908D01*
X0020035Y0037845D01*
X0019943Y0037785D01*
X0019849Y0037728D01*
X0019752Y0037674D01*
X0019654Y0037625D01*
X0019554Y0037578D01*
X0019452Y0037536D01*
X0019349Y0037497D01*
X0019245Y0037462D01*
X0019139Y0037430D01*
X0019033Y0037403D01*
X0018925Y0037379D01*
X0018817Y0037359D01*
X0018708Y0037343D01*
X0018598Y0037331D01*
X0018488Y0037323D01*
X0018378Y0037319D01*
X0018268Y0037319D01*
X0018158Y0037323D01*
X0018048Y0037331D01*
X0017938Y0037343D01*
X0017829Y0037359D01*
X0017721Y0037379D01*
X0017613Y0037403D01*
X0017507Y0037430D01*
X0017401Y0037462D01*
X0017297Y0037497D01*
X0017194Y0037536D01*
X0017092Y0037578D01*
X0016992Y0037625D01*
X0016894Y0037674D01*
X0016797Y0037728D01*
X0016703Y0037785D01*
X0016611Y0037845D01*
X0016521Y0037908D01*
X0016433Y0037975D01*
X0016348Y0038045D01*
X0016265Y0038117D01*
X0016185Y0038193D01*
X0016108Y0038272D01*
X0016034Y0038353D01*
X0015962Y0038437D01*
X0015894Y0038524D01*
X0015829Y0038613D01*
X0015767Y0038704D01*
X0015709Y0038797D01*
X0015654Y0038892D01*
X0015602Y0038990D01*
X0015554Y0039089D01*
X0015510Y0039190D01*
X0015469Y0039292D01*
X0015432Y0039396D01*
X0015398Y0039501D01*
X0015369Y0039607D01*
X0015343Y0039714D01*
X0015322Y0039822D01*
X0015304Y0039931D01*
X0015290Y0040040D01*
X0015280Y0040150D01*
X0015274Y0040260D01*
X0015272Y0040370D01*
X0094898Y0040370D02*
X0094900Y0040463D01*
X0094906Y0040555D01*
X0094916Y0040647D01*
X0094930Y0040738D01*
X0094947Y0040829D01*
X0094969Y0040919D01*
X0094994Y0041008D01*
X0095023Y0041096D01*
X0095056Y0041182D01*
X0095093Y0041267D01*
X0095133Y0041351D01*
X0095177Y0041432D01*
X0095224Y0041512D01*
X0095274Y0041590D01*
X0095328Y0041665D01*
X0095385Y0041738D01*
X0095445Y0041808D01*
X0095508Y0041876D01*
X0095574Y0041941D01*
X0095642Y0042003D01*
X0095713Y0042063D01*
X0095787Y0042119D01*
X0095863Y0042172D01*
X0095941Y0042221D01*
X0096021Y0042268D01*
X0096103Y0042310D01*
X0096187Y0042350D01*
X0096272Y0042385D01*
X0096359Y0042417D01*
X0096447Y0042446D01*
X0096536Y0042470D01*
X0096626Y0042491D01*
X0096717Y0042507D01*
X0096809Y0042520D01*
X0096901Y0042529D01*
X0096994Y0042534D01*
X0097086Y0042535D01*
X0097179Y0042532D01*
X0097271Y0042525D01*
X0097363Y0042514D01*
X0097454Y0042499D01*
X0097545Y0042481D01*
X0097635Y0042458D01*
X0097723Y0042432D01*
X0097811Y0042402D01*
X0097897Y0042368D01*
X0097981Y0042331D01*
X0098064Y0042289D01*
X0098145Y0042245D01*
X0098225Y0042197D01*
X0098302Y0042146D01*
X0098376Y0042091D01*
X0098449Y0042033D01*
X0098519Y0041973D01*
X0098586Y0041909D01*
X0098650Y0041843D01*
X0098712Y0041773D01*
X0098770Y0041702D01*
X0098825Y0041628D01*
X0098877Y0041551D01*
X0098926Y0041472D01*
X0098972Y0041392D01*
X0099014Y0041309D01*
X0099052Y0041225D01*
X0099087Y0041139D01*
X0099118Y0041052D01*
X0099145Y0040964D01*
X0099168Y0040874D01*
X0099188Y0040784D01*
X0099204Y0040693D01*
X0099216Y0040601D01*
X0099224Y0040509D01*
X0099228Y0040416D01*
X0099228Y0040324D01*
X0099224Y0040231D01*
X0099216Y0040139D01*
X0099204Y0040047D01*
X0099188Y0039956D01*
X0099168Y0039866D01*
X0099145Y0039776D01*
X0099118Y0039688D01*
X0099087Y0039601D01*
X0099052Y0039515D01*
X0099014Y0039431D01*
X0098972Y0039348D01*
X0098926Y0039268D01*
X0098877Y0039189D01*
X0098825Y0039112D01*
X0098770Y0039038D01*
X0098712Y0038967D01*
X0098650Y0038897D01*
X0098586Y0038831D01*
X0098519Y0038767D01*
X0098449Y0038707D01*
X0098376Y0038649D01*
X0098302Y0038594D01*
X0098225Y0038543D01*
X0098146Y0038495D01*
X0098064Y0038451D01*
X0097981Y0038409D01*
X0097897Y0038372D01*
X0097811Y0038338D01*
X0097723Y0038308D01*
X0097635Y0038282D01*
X0097545Y0038259D01*
X0097454Y0038241D01*
X0097363Y0038226D01*
X0097271Y0038215D01*
X0097179Y0038208D01*
X0097086Y0038205D01*
X0096994Y0038206D01*
X0096901Y0038211D01*
X0096809Y0038220D01*
X0096717Y0038233D01*
X0096626Y0038249D01*
X0096536Y0038270D01*
X0096447Y0038294D01*
X0096359Y0038323D01*
X0096272Y0038355D01*
X0096187Y0038390D01*
X0096103Y0038430D01*
X0096021Y0038472D01*
X0095941Y0038519D01*
X0095863Y0038568D01*
X0095787Y0038621D01*
X0095713Y0038677D01*
X0095642Y0038737D01*
X0095574Y0038799D01*
X0095508Y0038864D01*
X0095445Y0038932D01*
X0095385Y0039002D01*
X0095328Y0039075D01*
X0095274Y0039150D01*
X0095224Y0039228D01*
X0095177Y0039308D01*
X0095133Y0039389D01*
X0095093Y0039473D01*
X0095056Y0039558D01*
X0095023Y0039644D01*
X0094994Y0039732D01*
X0094969Y0039821D01*
X0094947Y0039911D01*
X0094930Y0040002D01*
X0094916Y0040093D01*
X0094906Y0040185D01*
X0094900Y0040277D01*
X0094898Y0040370D01*
X0101492Y0040370D02*
X0101494Y0040480D01*
X0101500Y0040590D01*
X0101510Y0040700D01*
X0101524Y0040809D01*
X0101542Y0040918D01*
X0101563Y0041026D01*
X0101589Y0041133D01*
X0101618Y0041239D01*
X0101652Y0041344D01*
X0101689Y0041448D01*
X0101730Y0041550D01*
X0101774Y0041651D01*
X0101822Y0041750D01*
X0101874Y0041848D01*
X0101929Y0041943D01*
X0101987Y0042036D01*
X0102049Y0042127D01*
X0102114Y0042216D01*
X0102182Y0042303D01*
X0102254Y0042387D01*
X0102328Y0042468D01*
X0102405Y0042547D01*
X0102485Y0042623D01*
X0102568Y0042695D01*
X0102653Y0042765D01*
X0102741Y0042832D01*
X0102831Y0042895D01*
X0102923Y0042955D01*
X0103017Y0043012D01*
X0103114Y0043066D01*
X0103212Y0043115D01*
X0103312Y0043162D01*
X0103414Y0043204D01*
X0103517Y0043243D01*
X0103621Y0043278D01*
X0103727Y0043310D01*
X0103833Y0043337D01*
X0103941Y0043361D01*
X0104049Y0043381D01*
X0104158Y0043397D01*
X0104268Y0043409D01*
X0104378Y0043417D01*
X0104488Y0043421D01*
X0104598Y0043421D01*
X0104708Y0043417D01*
X0104818Y0043409D01*
X0104928Y0043397D01*
X0105037Y0043381D01*
X0105145Y0043361D01*
X0105253Y0043337D01*
X0105359Y0043310D01*
X0105465Y0043278D01*
X0105569Y0043243D01*
X0105672Y0043204D01*
X0105774Y0043162D01*
X0105874Y0043115D01*
X0105972Y0043066D01*
X0106068Y0043012D01*
X0106163Y0042955D01*
X0106255Y0042895D01*
X0106345Y0042832D01*
X0106433Y0042765D01*
X0106518Y0042695D01*
X0106601Y0042623D01*
X0106681Y0042547D01*
X0106758Y0042468D01*
X0106832Y0042387D01*
X0106904Y0042303D01*
X0106972Y0042216D01*
X0107037Y0042127D01*
X0107099Y0042036D01*
X0107157Y0041943D01*
X0107212Y0041848D01*
X0107264Y0041750D01*
X0107312Y0041651D01*
X0107356Y0041550D01*
X0107397Y0041448D01*
X0107434Y0041344D01*
X0107468Y0041239D01*
X0107497Y0041133D01*
X0107523Y0041026D01*
X0107544Y0040918D01*
X0107562Y0040809D01*
X0107576Y0040700D01*
X0107586Y0040590D01*
X0107592Y0040480D01*
X0107594Y0040370D01*
X0107592Y0040260D01*
X0107586Y0040150D01*
X0107576Y0040040D01*
X0107562Y0039931D01*
X0107544Y0039822D01*
X0107523Y0039714D01*
X0107497Y0039607D01*
X0107468Y0039501D01*
X0107434Y0039396D01*
X0107397Y0039292D01*
X0107356Y0039190D01*
X0107312Y0039089D01*
X0107264Y0038990D01*
X0107212Y0038892D01*
X0107157Y0038797D01*
X0107099Y0038704D01*
X0107037Y0038613D01*
X0106972Y0038524D01*
X0106904Y0038437D01*
X0106832Y0038353D01*
X0106758Y0038272D01*
X0106681Y0038193D01*
X0106601Y0038117D01*
X0106518Y0038045D01*
X0106433Y0037975D01*
X0106345Y0037908D01*
X0106255Y0037845D01*
X0106163Y0037785D01*
X0106069Y0037728D01*
X0105972Y0037674D01*
X0105874Y0037625D01*
X0105774Y0037578D01*
X0105672Y0037536D01*
X0105569Y0037497D01*
X0105465Y0037462D01*
X0105359Y0037430D01*
X0105253Y0037403D01*
X0105145Y0037379D01*
X0105037Y0037359D01*
X0104928Y0037343D01*
X0104818Y0037331D01*
X0104708Y0037323D01*
X0104598Y0037319D01*
X0104488Y0037319D01*
X0104378Y0037323D01*
X0104268Y0037331D01*
X0104158Y0037343D01*
X0104049Y0037359D01*
X0103941Y0037379D01*
X0103833Y0037403D01*
X0103727Y0037430D01*
X0103621Y0037462D01*
X0103517Y0037497D01*
X0103414Y0037536D01*
X0103312Y0037578D01*
X0103212Y0037625D01*
X0103114Y0037674D01*
X0103017Y0037728D01*
X0102923Y0037785D01*
X0102831Y0037845D01*
X0102741Y0037908D01*
X0102653Y0037975D01*
X0102568Y0038045D01*
X0102485Y0038117D01*
X0102405Y0038193D01*
X0102328Y0038272D01*
X0102254Y0038353D01*
X0102182Y0038437D01*
X0102114Y0038524D01*
X0102049Y0038613D01*
X0101987Y0038704D01*
X0101929Y0038797D01*
X0101874Y0038892D01*
X0101822Y0038990D01*
X0101774Y0039089D01*
X0101730Y0039190D01*
X0101689Y0039292D01*
X0101652Y0039396D01*
X0101618Y0039501D01*
X0101589Y0039607D01*
X0101563Y0039714D01*
X0101542Y0039822D01*
X0101524Y0039931D01*
X0101510Y0040040D01*
X0101500Y0040150D01*
X0101494Y0040260D01*
X0101492Y0040370D01*
X0181118Y0040370D02*
X0181120Y0040463D01*
X0181126Y0040555D01*
X0181136Y0040647D01*
X0181150Y0040738D01*
X0181167Y0040829D01*
X0181189Y0040919D01*
X0181214Y0041008D01*
X0181243Y0041096D01*
X0181276Y0041182D01*
X0181313Y0041267D01*
X0181353Y0041351D01*
X0181397Y0041432D01*
X0181444Y0041512D01*
X0181494Y0041590D01*
X0181548Y0041665D01*
X0181605Y0041738D01*
X0181665Y0041808D01*
X0181728Y0041876D01*
X0181794Y0041941D01*
X0181862Y0042003D01*
X0181933Y0042063D01*
X0182007Y0042119D01*
X0182083Y0042172D01*
X0182161Y0042221D01*
X0182241Y0042268D01*
X0182323Y0042310D01*
X0182407Y0042350D01*
X0182492Y0042385D01*
X0182579Y0042417D01*
X0182667Y0042446D01*
X0182756Y0042470D01*
X0182846Y0042491D01*
X0182937Y0042507D01*
X0183029Y0042520D01*
X0183121Y0042529D01*
X0183214Y0042534D01*
X0183306Y0042535D01*
X0183399Y0042532D01*
X0183491Y0042525D01*
X0183583Y0042514D01*
X0183674Y0042499D01*
X0183765Y0042481D01*
X0183855Y0042458D01*
X0183943Y0042432D01*
X0184031Y0042402D01*
X0184117Y0042368D01*
X0184201Y0042331D01*
X0184284Y0042289D01*
X0184365Y0042245D01*
X0184445Y0042197D01*
X0184522Y0042146D01*
X0184596Y0042091D01*
X0184669Y0042033D01*
X0184739Y0041973D01*
X0184806Y0041909D01*
X0184870Y0041843D01*
X0184932Y0041773D01*
X0184990Y0041702D01*
X0185045Y0041628D01*
X0185097Y0041551D01*
X0185146Y0041472D01*
X0185192Y0041392D01*
X0185234Y0041309D01*
X0185272Y0041225D01*
X0185307Y0041139D01*
X0185338Y0041052D01*
X0185365Y0040964D01*
X0185388Y0040874D01*
X0185408Y0040784D01*
X0185424Y0040693D01*
X0185436Y0040601D01*
X0185444Y0040509D01*
X0185448Y0040416D01*
X0185448Y0040324D01*
X0185444Y0040231D01*
X0185436Y0040139D01*
X0185424Y0040047D01*
X0185408Y0039956D01*
X0185388Y0039866D01*
X0185365Y0039776D01*
X0185338Y0039688D01*
X0185307Y0039601D01*
X0185272Y0039515D01*
X0185234Y0039431D01*
X0185192Y0039348D01*
X0185146Y0039268D01*
X0185097Y0039189D01*
X0185045Y0039112D01*
X0184990Y0039038D01*
X0184932Y0038967D01*
X0184870Y0038897D01*
X0184806Y0038831D01*
X0184739Y0038767D01*
X0184669Y0038707D01*
X0184596Y0038649D01*
X0184522Y0038594D01*
X0184445Y0038543D01*
X0184366Y0038495D01*
X0184284Y0038451D01*
X0184201Y0038409D01*
X0184117Y0038372D01*
X0184031Y0038338D01*
X0183943Y0038308D01*
X0183855Y0038282D01*
X0183765Y0038259D01*
X0183674Y0038241D01*
X0183583Y0038226D01*
X0183491Y0038215D01*
X0183399Y0038208D01*
X0183306Y0038205D01*
X0183214Y0038206D01*
X0183121Y0038211D01*
X0183029Y0038220D01*
X0182937Y0038233D01*
X0182846Y0038249D01*
X0182756Y0038270D01*
X0182667Y0038294D01*
X0182579Y0038323D01*
X0182492Y0038355D01*
X0182407Y0038390D01*
X0182323Y0038430D01*
X0182241Y0038472D01*
X0182161Y0038519D01*
X0182083Y0038568D01*
X0182007Y0038621D01*
X0181933Y0038677D01*
X0181862Y0038737D01*
X0181794Y0038799D01*
X0181728Y0038864D01*
X0181665Y0038932D01*
X0181605Y0039002D01*
X0181548Y0039075D01*
X0181494Y0039150D01*
X0181444Y0039228D01*
X0181397Y0039308D01*
X0181353Y0039389D01*
X0181313Y0039473D01*
X0181276Y0039558D01*
X0181243Y0039644D01*
X0181214Y0039732D01*
X0181189Y0039821D01*
X0181167Y0039911D01*
X0181150Y0040002D01*
X0181136Y0040093D01*
X0181126Y0040185D01*
X0181120Y0040277D01*
X0181118Y0040370D01*
M02*
