G75*
%MOIN*%
%OFA0B0*%
%FSLAX25Y25*%
%IPPOS*%
%LPD*%
%AMOC8*
5,1,8,0,0,1.08239X$1,22.5*
%
%ADD10C,0.00000*%
%ADD11R,0.01378X0.09843*%
%ADD12C,0.29528*%
%ADD13C,0.29921*%
D10*
X0005706Y0001400D02*
X0005706Y0017148D01*
X0001474Y0017148D01*
X0001474Y0237620D01*
X0037891Y0237620D01*
X0037893Y0237452D01*
X0037899Y0237285D01*
X0037909Y0237117D01*
X0037924Y0236950D01*
X0037942Y0236783D01*
X0037964Y0236617D01*
X0037991Y0236451D01*
X0038021Y0236286D01*
X0038056Y0236122D01*
X0038094Y0235959D01*
X0038137Y0235796D01*
X0038183Y0235635D01*
X0038233Y0235475D01*
X0038288Y0235316D01*
X0038346Y0235159D01*
X0038407Y0235003D01*
X0038473Y0234848D01*
X0038542Y0234695D01*
X0038616Y0234544D01*
X0038692Y0234395D01*
X0038773Y0234248D01*
X0038856Y0234103D01*
X0038944Y0233959D01*
X0039035Y0233818D01*
X0039129Y0233680D01*
X0039227Y0233543D01*
X0039328Y0233409D01*
X0039432Y0233277D01*
X0039539Y0233148D01*
X0039650Y0233022D01*
X0039763Y0232899D01*
X0039879Y0232778D01*
X0039999Y0232660D01*
X0040121Y0232545D01*
X0040246Y0232433D01*
X0040374Y0232324D01*
X0040504Y0232218D01*
X0040637Y0232116D01*
X0040772Y0232016D01*
X0040910Y0231920D01*
X0041050Y0231828D01*
X0041192Y0231739D01*
X0041336Y0231653D01*
X0041482Y0231571D01*
X0041631Y0231492D01*
X0041781Y0231418D01*
X0041933Y0231346D01*
X0042086Y0231279D01*
X0042242Y0231215D01*
X0042398Y0231155D01*
X0042556Y0231099D01*
X0042716Y0231047D01*
X0042876Y0230998D01*
X0043038Y0230954D01*
X0043201Y0230914D01*
X0043365Y0230877D01*
X0043530Y0230845D01*
X0043695Y0230816D01*
X0043861Y0230792D01*
X0044027Y0230771D01*
X0044194Y0230755D01*
X0044362Y0230743D01*
X0044529Y0230735D01*
X0044697Y0230731D01*
X0044865Y0230731D01*
X0045033Y0230735D01*
X0045200Y0230743D01*
X0045368Y0230755D01*
X0045535Y0230771D01*
X0045701Y0230792D01*
X0045867Y0230816D01*
X0046032Y0230845D01*
X0046197Y0230877D01*
X0046361Y0230914D01*
X0046524Y0230954D01*
X0046686Y0230998D01*
X0046846Y0231047D01*
X0047006Y0231099D01*
X0047164Y0231155D01*
X0047320Y0231215D01*
X0047476Y0231279D01*
X0047629Y0231346D01*
X0047781Y0231418D01*
X0047931Y0231492D01*
X0048080Y0231571D01*
X0048226Y0231653D01*
X0048370Y0231739D01*
X0048512Y0231828D01*
X0048652Y0231920D01*
X0048790Y0232016D01*
X0048925Y0232116D01*
X0049058Y0232218D01*
X0049188Y0232324D01*
X0049316Y0232433D01*
X0049441Y0232545D01*
X0049563Y0232660D01*
X0049683Y0232778D01*
X0049799Y0232899D01*
X0049912Y0233022D01*
X0050023Y0233148D01*
X0050130Y0233277D01*
X0050234Y0233409D01*
X0050335Y0233543D01*
X0050433Y0233680D01*
X0050527Y0233818D01*
X0050618Y0233959D01*
X0050706Y0234103D01*
X0050789Y0234248D01*
X0050870Y0234395D01*
X0050946Y0234544D01*
X0051020Y0234695D01*
X0051089Y0234848D01*
X0051155Y0235003D01*
X0051216Y0235159D01*
X0051274Y0235316D01*
X0051329Y0235475D01*
X0051379Y0235635D01*
X0051425Y0235796D01*
X0051468Y0235959D01*
X0051506Y0236122D01*
X0051541Y0236286D01*
X0051571Y0236451D01*
X0051598Y0236617D01*
X0051620Y0236783D01*
X0051638Y0236950D01*
X0051653Y0237117D01*
X0051663Y0237285D01*
X0051669Y0237452D01*
X0051671Y0237620D01*
X0124505Y0237620D01*
X0124507Y0237452D01*
X0124513Y0237285D01*
X0124523Y0237117D01*
X0124538Y0236950D01*
X0124556Y0236783D01*
X0124578Y0236617D01*
X0124605Y0236451D01*
X0124635Y0236286D01*
X0124670Y0236122D01*
X0124708Y0235959D01*
X0124751Y0235796D01*
X0124797Y0235635D01*
X0124847Y0235475D01*
X0124902Y0235316D01*
X0124960Y0235159D01*
X0125021Y0235003D01*
X0125087Y0234848D01*
X0125156Y0234695D01*
X0125230Y0234544D01*
X0125306Y0234395D01*
X0125387Y0234248D01*
X0125470Y0234103D01*
X0125558Y0233959D01*
X0125649Y0233818D01*
X0125743Y0233680D01*
X0125841Y0233543D01*
X0125942Y0233409D01*
X0126046Y0233277D01*
X0126153Y0233148D01*
X0126264Y0233022D01*
X0126377Y0232899D01*
X0126493Y0232778D01*
X0126613Y0232660D01*
X0126735Y0232545D01*
X0126860Y0232433D01*
X0126988Y0232324D01*
X0127118Y0232218D01*
X0127251Y0232116D01*
X0127386Y0232016D01*
X0127524Y0231920D01*
X0127664Y0231828D01*
X0127806Y0231739D01*
X0127950Y0231653D01*
X0128096Y0231571D01*
X0128245Y0231492D01*
X0128395Y0231418D01*
X0128547Y0231346D01*
X0128700Y0231279D01*
X0128856Y0231215D01*
X0129012Y0231155D01*
X0129170Y0231099D01*
X0129330Y0231047D01*
X0129490Y0230998D01*
X0129652Y0230954D01*
X0129815Y0230914D01*
X0129979Y0230877D01*
X0130144Y0230845D01*
X0130309Y0230816D01*
X0130475Y0230792D01*
X0130641Y0230771D01*
X0130808Y0230755D01*
X0130976Y0230743D01*
X0131143Y0230735D01*
X0131311Y0230731D01*
X0131479Y0230731D01*
X0131647Y0230735D01*
X0131814Y0230743D01*
X0131982Y0230755D01*
X0132149Y0230771D01*
X0132315Y0230792D01*
X0132481Y0230816D01*
X0132646Y0230845D01*
X0132811Y0230877D01*
X0132975Y0230914D01*
X0133138Y0230954D01*
X0133300Y0230998D01*
X0133460Y0231047D01*
X0133620Y0231099D01*
X0133778Y0231155D01*
X0133934Y0231215D01*
X0134090Y0231279D01*
X0134243Y0231346D01*
X0134395Y0231418D01*
X0134545Y0231492D01*
X0134694Y0231571D01*
X0134840Y0231653D01*
X0134984Y0231739D01*
X0135126Y0231828D01*
X0135266Y0231920D01*
X0135404Y0232016D01*
X0135539Y0232116D01*
X0135672Y0232218D01*
X0135802Y0232324D01*
X0135930Y0232433D01*
X0136055Y0232545D01*
X0136177Y0232660D01*
X0136297Y0232778D01*
X0136413Y0232899D01*
X0136526Y0233022D01*
X0136637Y0233148D01*
X0136744Y0233277D01*
X0136848Y0233409D01*
X0136949Y0233543D01*
X0137047Y0233680D01*
X0137141Y0233818D01*
X0137232Y0233959D01*
X0137320Y0234103D01*
X0137403Y0234248D01*
X0137484Y0234395D01*
X0137560Y0234544D01*
X0137634Y0234695D01*
X0137703Y0234848D01*
X0137769Y0235003D01*
X0137830Y0235159D01*
X0137888Y0235316D01*
X0137943Y0235475D01*
X0137993Y0235635D01*
X0138039Y0235796D01*
X0138082Y0235959D01*
X0138120Y0236122D01*
X0138155Y0236286D01*
X0138185Y0236451D01*
X0138212Y0236617D01*
X0138234Y0236783D01*
X0138252Y0236950D01*
X0138267Y0237117D01*
X0138277Y0237285D01*
X0138283Y0237452D01*
X0138285Y0237620D01*
X0174702Y0237620D01*
X0174702Y0017148D01*
X0170470Y0017148D01*
X0170470Y0001400D01*
X0155903Y0001400D01*
X0155903Y0012817D01*
X0155902Y0012817D02*
X0155899Y0012914D01*
X0155891Y0013011D01*
X0155879Y0013108D01*
X0155863Y0013203D01*
X0155844Y0013299D01*
X0155821Y0013393D01*
X0155794Y0013486D01*
X0155763Y0013578D01*
X0155728Y0013669D01*
X0155690Y0013759D01*
X0155649Y0013846D01*
X0155603Y0013932D01*
X0155555Y0014016D01*
X0155503Y0014098D01*
X0155448Y0014178D01*
X0155389Y0014256D01*
X0155328Y0014331D01*
X0155263Y0014404D01*
X0155196Y0014474D01*
X0155126Y0014541D01*
X0155053Y0014606D01*
X0154978Y0014667D01*
X0154900Y0014725D01*
X0154820Y0014781D01*
X0154738Y0014832D01*
X0154654Y0014881D01*
X0154568Y0014926D01*
X0154480Y0014968D01*
X0154391Y0015006D01*
X0154300Y0015040D01*
X0154208Y0015071D01*
X0154115Y0015098D01*
X0154020Y0015121D01*
X0153925Y0015141D01*
X0153829Y0015156D01*
X0153733Y0015168D01*
X0153636Y0015176D01*
X0153539Y0015180D01*
X0153442Y0015179D01*
X0153442Y0015180D02*
X0153349Y0015177D01*
X0153256Y0015169D01*
X0153163Y0015158D01*
X0153071Y0015143D01*
X0152980Y0015124D01*
X0152890Y0015101D01*
X0152800Y0015075D01*
X0152712Y0015046D01*
X0152625Y0015013D01*
X0152539Y0014976D01*
X0152455Y0014936D01*
X0152372Y0014893D01*
X0152292Y0014846D01*
X0152213Y0014796D01*
X0152136Y0014743D01*
X0152062Y0014687D01*
X0151990Y0014628D01*
X0151920Y0014566D01*
X0151853Y0014501D01*
X0151788Y0014434D01*
X0151727Y0014364D01*
X0151668Y0014292D01*
X0151612Y0014217D01*
X0151559Y0014141D01*
X0151509Y0014062D01*
X0151463Y0013981D01*
X0151420Y0013899D01*
X0151380Y0013814D01*
X0151343Y0013729D01*
X0151310Y0013641D01*
X0151281Y0013553D01*
X0151255Y0013463D01*
X0151233Y0013373D01*
X0151214Y0013282D01*
X0151200Y0013190D01*
X0151188Y0013097D01*
X0151181Y0013004D01*
X0151177Y0012911D01*
X0151178Y0012818D01*
X0151178Y0012817D02*
X0151178Y0001400D01*
X0092320Y0001400D01*
X0092320Y0017148D01*
X0083856Y0017148D01*
X0083856Y0001400D01*
X0069289Y0001400D01*
X0069289Y0012817D01*
X0069288Y0012817D02*
X0069285Y0012914D01*
X0069277Y0013011D01*
X0069265Y0013108D01*
X0069249Y0013203D01*
X0069230Y0013299D01*
X0069207Y0013393D01*
X0069180Y0013486D01*
X0069149Y0013578D01*
X0069114Y0013669D01*
X0069076Y0013759D01*
X0069035Y0013846D01*
X0068989Y0013932D01*
X0068941Y0014016D01*
X0068889Y0014098D01*
X0068834Y0014178D01*
X0068775Y0014256D01*
X0068714Y0014331D01*
X0068649Y0014404D01*
X0068582Y0014474D01*
X0068512Y0014541D01*
X0068439Y0014606D01*
X0068364Y0014667D01*
X0068286Y0014725D01*
X0068206Y0014781D01*
X0068124Y0014832D01*
X0068040Y0014881D01*
X0067954Y0014926D01*
X0067866Y0014968D01*
X0067777Y0015006D01*
X0067686Y0015040D01*
X0067594Y0015071D01*
X0067501Y0015098D01*
X0067406Y0015121D01*
X0067311Y0015141D01*
X0067215Y0015156D01*
X0067119Y0015168D01*
X0067022Y0015176D01*
X0066925Y0015180D01*
X0066828Y0015179D01*
X0066828Y0015180D02*
X0066735Y0015177D01*
X0066642Y0015169D01*
X0066549Y0015158D01*
X0066457Y0015143D01*
X0066366Y0015124D01*
X0066276Y0015101D01*
X0066186Y0015075D01*
X0066098Y0015046D01*
X0066011Y0015013D01*
X0065925Y0014976D01*
X0065841Y0014936D01*
X0065758Y0014893D01*
X0065678Y0014846D01*
X0065599Y0014796D01*
X0065522Y0014743D01*
X0065448Y0014687D01*
X0065376Y0014628D01*
X0065306Y0014566D01*
X0065239Y0014501D01*
X0065174Y0014434D01*
X0065113Y0014364D01*
X0065054Y0014292D01*
X0064998Y0014217D01*
X0064945Y0014141D01*
X0064895Y0014062D01*
X0064849Y0013981D01*
X0064806Y0013899D01*
X0064766Y0013814D01*
X0064729Y0013729D01*
X0064696Y0013641D01*
X0064667Y0013553D01*
X0064641Y0013463D01*
X0064619Y0013373D01*
X0064600Y0013282D01*
X0064586Y0013190D01*
X0064574Y0013097D01*
X0064567Y0013004D01*
X0064563Y0012911D01*
X0064564Y0012818D01*
X0064564Y0012817D02*
X0064564Y0001400D01*
X0005706Y0001400D01*
X0037891Y0237620D02*
X0037893Y0237452D01*
X0037899Y0237285D01*
X0037909Y0237117D01*
X0037924Y0236950D01*
X0037942Y0236783D01*
X0037964Y0236617D01*
X0037991Y0236451D01*
X0038021Y0236286D01*
X0038056Y0236122D01*
X0038094Y0235959D01*
X0038137Y0235796D01*
X0038183Y0235635D01*
X0038233Y0235475D01*
X0038288Y0235316D01*
X0038346Y0235159D01*
X0038407Y0235003D01*
X0038473Y0234848D01*
X0038542Y0234695D01*
X0038616Y0234544D01*
X0038692Y0234395D01*
X0038773Y0234248D01*
X0038856Y0234103D01*
X0038944Y0233959D01*
X0039035Y0233818D01*
X0039129Y0233680D01*
X0039227Y0233543D01*
X0039328Y0233409D01*
X0039432Y0233277D01*
X0039539Y0233148D01*
X0039650Y0233022D01*
X0039763Y0232899D01*
X0039879Y0232778D01*
X0039999Y0232660D01*
X0040121Y0232545D01*
X0040246Y0232433D01*
X0040374Y0232324D01*
X0040504Y0232218D01*
X0040637Y0232116D01*
X0040772Y0232016D01*
X0040910Y0231920D01*
X0041050Y0231828D01*
X0041192Y0231739D01*
X0041336Y0231653D01*
X0041482Y0231571D01*
X0041631Y0231492D01*
X0041781Y0231418D01*
X0041933Y0231346D01*
X0042086Y0231279D01*
X0042242Y0231215D01*
X0042398Y0231155D01*
X0042556Y0231099D01*
X0042716Y0231047D01*
X0042876Y0230998D01*
X0043038Y0230954D01*
X0043201Y0230914D01*
X0043365Y0230877D01*
X0043530Y0230845D01*
X0043695Y0230816D01*
X0043861Y0230792D01*
X0044027Y0230771D01*
X0044194Y0230755D01*
X0044362Y0230743D01*
X0044529Y0230735D01*
X0044697Y0230731D01*
X0044865Y0230731D01*
X0045033Y0230735D01*
X0045200Y0230743D01*
X0045368Y0230755D01*
X0045535Y0230771D01*
X0045701Y0230792D01*
X0045867Y0230816D01*
X0046032Y0230845D01*
X0046197Y0230877D01*
X0046361Y0230914D01*
X0046524Y0230954D01*
X0046686Y0230998D01*
X0046846Y0231047D01*
X0047006Y0231099D01*
X0047164Y0231155D01*
X0047320Y0231215D01*
X0047476Y0231279D01*
X0047629Y0231346D01*
X0047781Y0231418D01*
X0047931Y0231492D01*
X0048080Y0231571D01*
X0048226Y0231653D01*
X0048370Y0231739D01*
X0048512Y0231828D01*
X0048652Y0231920D01*
X0048790Y0232016D01*
X0048925Y0232116D01*
X0049058Y0232218D01*
X0049188Y0232324D01*
X0049316Y0232433D01*
X0049441Y0232545D01*
X0049563Y0232660D01*
X0049683Y0232778D01*
X0049799Y0232899D01*
X0049912Y0233022D01*
X0050023Y0233148D01*
X0050130Y0233277D01*
X0050234Y0233409D01*
X0050335Y0233543D01*
X0050433Y0233680D01*
X0050527Y0233818D01*
X0050618Y0233959D01*
X0050706Y0234103D01*
X0050789Y0234248D01*
X0050870Y0234395D01*
X0050946Y0234544D01*
X0051020Y0234695D01*
X0051089Y0234848D01*
X0051155Y0235003D01*
X0051216Y0235159D01*
X0051274Y0235316D01*
X0051329Y0235475D01*
X0051379Y0235635D01*
X0051425Y0235796D01*
X0051468Y0235959D01*
X0051506Y0236122D01*
X0051541Y0236286D01*
X0051571Y0236451D01*
X0051598Y0236617D01*
X0051620Y0236783D01*
X0051638Y0236950D01*
X0051653Y0237117D01*
X0051663Y0237285D01*
X0051669Y0237452D01*
X0051671Y0237620D01*
X0124505Y0237620D02*
X0124507Y0237452D01*
X0124513Y0237285D01*
X0124523Y0237117D01*
X0124538Y0236950D01*
X0124556Y0236783D01*
X0124578Y0236617D01*
X0124605Y0236451D01*
X0124635Y0236286D01*
X0124670Y0236122D01*
X0124708Y0235959D01*
X0124751Y0235796D01*
X0124797Y0235635D01*
X0124847Y0235475D01*
X0124902Y0235316D01*
X0124960Y0235159D01*
X0125021Y0235003D01*
X0125087Y0234848D01*
X0125156Y0234695D01*
X0125230Y0234544D01*
X0125306Y0234395D01*
X0125387Y0234248D01*
X0125470Y0234103D01*
X0125558Y0233959D01*
X0125649Y0233818D01*
X0125743Y0233680D01*
X0125841Y0233543D01*
X0125942Y0233409D01*
X0126046Y0233277D01*
X0126153Y0233148D01*
X0126264Y0233022D01*
X0126377Y0232899D01*
X0126493Y0232778D01*
X0126613Y0232660D01*
X0126735Y0232545D01*
X0126860Y0232433D01*
X0126988Y0232324D01*
X0127118Y0232218D01*
X0127251Y0232116D01*
X0127386Y0232016D01*
X0127524Y0231920D01*
X0127664Y0231828D01*
X0127806Y0231739D01*
X0127950Y0231653D01*
X0128096Y0231571D01*
X0128245Y0231492D01*
X0128395Y0231418D01*
X0128547Y0231346D01*
X0128700Y0231279D01*
X0128856Y0231215D01*
X0129012Y0231155D01*
X0129170Y0231099D01*
X0129330Y0231047D01*
X0129490Y0230998D01*
X0129652Y0230954D01*
X0129815Y0230914D01*
X0129979Y0230877D01*
X0130144Y0230845D01*
X0130309Y0230816D01*
X0130475Y0230792D01*
X0130641Y0230771D01*
X0130808Y0230755D01*
X0130976Y0230743D01*
X0131143Y0230735D01*
X0131311Y0230731D01*
X0131479Y0230731D01*
X0131647Y0230735D01*
X0131814Y0230743D01*
X0131982Y0230755D01*
X0132149Y0230771D01*
X0132315Y0230792D01*
X0132481Y0230816D01*
X0132646Y0230845D01*
X0132811Y0230877D01*
X0132975Y0230914D01*
X0133138Y0230954D01*
X0133300Y0230998D01*
X0133460Y0231047D01*
X0133620Y0231099D01*
X0133778Y0231155D01*
X0133934Y0231215D01*
X0134090Y0231279D01*
X0134243Y0231346D01*
X0134395Y0231418D01*
X0134545Y0231492D01*
X0134694Y0231571D01*
X0134840Y0231653D01*
X0134984Y0231739D01*
X0135126Y0231828D01*
X0135266Y0231920D01*
X0135404Y0232016D01*
X0135539Y0232116D01*
X0135672Y0232218D01*
X0135802Y0232324D01*
X0135930Y0232433D01*
X0136055Y0232545D01*
X0136177Y0232660D01*
X0136297Y0232778D01*
X0136413Y0232899D01*
X0136526Y0233022D01*
X0136637Y0233148D01*
X0136744Y0233277D01*
X0136848Y0233409D01*
X0136949Y0233543D01*
X0137047Y0233680D01*
X0137141Y0233818D01*
X0137232Y0233959D01*
X0137320Y0234103D01*
X0137403Y0234248D01*
X0137484Y0234395D01*
X0137560Y0234544D01*
X0137634Y0234695D01*
X0137703Y0234848D01*
X0137769Y0235003D01*
X0137830Y0235159D01*
X0137888Y0235316D01*
X0137943Y0235475D01*
X0137993Y0235635D01*
X0138039Y0235796D01*
X0138082Y0235959D01*
X0138120Y0236122D01*
X0138155Y0236286D01*
X0138185Y0236451D01*
X0138212Y0236617D01*
X0138234Y0236783D01*
X0138252Y0236950D01*
X0138267Y0237117D01*
X0138277Y0237285D01*
X0138283Y0237452D01*
X0138285Y0237620D01*
D11*
X0138285Y0006321D03*
X0140253Y0006321D03*
X0142222Y0006321D03*
X0144190Y0006321D03*
X0146159Y0006321D03*
X0148127Y0006321D03*
X0157970Y0006321D03*
X0159938Y0006321D03*
X0161907Y0006321D03*
X0163875Y0006321D03*
X0165844Y0006321D03*
X0167812Y0006321D03*
X0136316Y0006321D03*
X0134348Y0006321D03*
X0132379Y0006321D03*
X0130411Y0006321D03*
X0128442Y0006321D03*
X0126474Y0006321D03*
X0124505Y0006321D03*
X0122537Y0006321D03*
X0120568Y0006321D03*
X0118600Y0006321D03*
X0116631Y0006321D03*
X0114663Y0006321D03*
X0112694Y0006321D03*
X0110726Y0006321D03*
X0108757Y0006321D03*
X0106789Y0006321D03*
X0104820Y0006321D03*
X0102852Y0006321D03*
X0100883Y0006321D03*
X0098915Y0006321D03*
X0096946Y0006321D03*
X0094978Y0006321D03*
X0081198Y0006321D03*
X0079230Y0006321D03*
X0077261Y0006321D03*
X0075293Y0006321D03*
X0073324Y0006321D03*
X0071356Y0006321D03*
X0061513Y0006321D03*
X0059545Y0006321D03*
X0057576Y0006321D03*
X0055608Y0006321D03*
X0053639Y0006321D03*
X0051671Y0006321D03*
X0049702Y0006321D03*
X0047734Y0006321D03*
X0045765Y0006321D03*
X0043797Y0006321D03*
X0041828Y0006321D03*
X0039860Y0006321D03*
X0037891Y0006321D03*
X0035923Y0006321D03*
X0033954Y0006321D03*
X0031986Y0006321D03*
X0030017Y0006321D03*
X0028048Y0006321D03*
X0026080Y0006321D03*
X0024111Y0006321D03*
X0022143Y0006321D03*
X0020174Y0006321D03*
X0018206Y0006321D03*
X0016237Y0006321D03*
X0014269Y0006321D03*
X0012300Y0006321D03*
X0010332Y0006321D03*
X0008363Y0006321D03*
D12*
X0131395Y0166754D03*
X0131395Y0237620D03*
X0044781Y0237620D03*
D13*
X0044781Y0166754D03*
M02*
