G75*
%MOIN*%
%OFA0B0*%
%FSLAX25Y25*%
%IPPOS*%
%LPD*%
%AMOC8*
5,1,8,0,0,1.08239X$1,22.5*
%
%ADD10R,0.01378X0.09843*%
D10*
X0008363Y0006321D03*
X0010332Y0006321D03*
X0012300Y0006321D03*
X0014269Y0006321D03*
X0016237Y0006321D03*
X0018206Y0006321D03*
X0020174Y0006321D03*
X0022143Y0006321D03*
X0024111Y0006321D03*
X0026080Y0006321D03*
X0028048Y0006321D03*
X0030017Y0006321D03*
X0031986Y0006321D03*
X0033954Y0006321D03*
X0035923Y0006321D03*
X0037891Y0006321D03*
X0039860Y0006321D03*
X0041828Y0006321D03*
X0043797Y0006321D03*
X0045765Y0006321D03*
X0047734Y0006321D03*
X0049702Y0006321D03*
X0051671Y0006321D03*
X0053639Y0006321D03*
X0055608Y0006321D03*
X0057576Y0006321D03*
X0059545Y0006321D03*
X0061513Y0006321D03*
X0071356Y0006321D03*
X0073324Y0006321D03*
X0075293Y0006321D03*
X0077261Y0006321D03*
X0079230Y0006321D03*
X0081198Y0006321D03*
X0094978Y0006321D03*
X0096946Y0006321D03*
X0098915Y0006321D03*
X0100883Y0006321D03*
X0102852Y0006321D03*
X0104820Y0006321D03*
X0106789Y0006321D03*
X0108757Y0006321D03*
X0110726Y0006321D03*
X0112694Y0006321D03*
X0114663Y0006321D03*
X0116631Y0006321D03*
X0118600Y0006321D03*
X0120568Y0006321D03*
X0122537Y0006321D03*
X0124505Y0006321D03*
X0126474Y0006321D03*
X0128442Y0006321D03*
X0130411Y0006321D03*
X0132379Y0006321D03*
X0134348Y0006321D03*
X0136316Y0006321D03*
X0138285Y0006321D03*
X0140253Y0006321D03*
X0142222Y0006321D03*
X0144190Y0006321D03*
X0146159Y0006321D03*
X0148127Y0006321D03*
X0157970Y0006321D03*
X0159938Y0006321D03*
X0161907Y0006321D03*
X0163875Y0006321D03*
X0165844Y0006321D03*
X0167812Y0006321D03*
M02*
