G75*
%MOIN*%
%OFA0B0*%
%FSLAX25Y25*%
%IPPOS*%
%LPD*%
%AMOC8*
5,1,8,0,0,1.08239X$1,22.5*
%
%ADD10R,0.02178X0.10643*%
%ADD11C,0.30328*%
%ADD12C,0.30721*%
D10*
X0009348Y0006321D03*
X0011316Y0006321D03*
X0013285Y0006321D03*
X0015253Y0006321D03*
X0017222Y0006321D03*
X0019190Y0006321D03*
X0021159Y0006321D03*
X0023127Y0006321D03*
X0025096Y0006321D03*
X0027064Y0006321D03*
X0029033Y0006321D03*
X0031001Y0006321D03*
X0032970Y0006321D03*
X0034938Y0006321D03*
X0036907Y0006321D03*
X0038875Y0006321D03*
X0040844Y0006321D03*
X0042812Y0006321D03*
X0044781Y0006321D03*
X0046749Y0006321D03*
X0048718Y0006321D03*
X0050686Y0006321D03*
X0052655Y0006321D03*
X0054623Y0006321D03*
X0056592Y0006321D03*
X0058560Y0006321D03*
X0060529Y0006321D03*
X0062497Y0006321D03*
X0072340Y0006321D03*
X0074308Y0006321D03*
X0076277Y0006321D03*
X0078245Y0006321D03*
X0080214Y0006321D03*
X0095962Y0006321D03*
X0097930Y0006321D03*
X0099899Y0006321D03*
X0101867Y0006321D03*
X0103836Y0006321D03*
X0105804Y0006321D03*
X0107773Y0006321D03*
X0109741Y0006321D03*
X0111710Y0006321D03*
X0113678Y0006321D03*
X0115647Y0006321D03*
X0117615Y0006321D03*
X0119584Y0006321D03*
X0121552Y0006321D03*
X0123521Y0006321D03*
X0125489Y0006321D03*
X0127458Y0006321D03*
X0129426Y0006321D03*
X0131395Y0006321D03*
X0133363Y0006321D03*
X0135332Y0006321D03*
X0137300Y0006321D03*
X0139269Y0006321D03*
X0141237Y0006321D03*
X0143206Y0006321D03*
X0145174Y0006321D03*
X0147143Y0006321D03*
X0149111Y0006321D03*
X0158954Y0006321D03*
X0160923Y0006321D03*
X0162891Y0006321D03*
X0164860Y0006321D03*
X0166828Y0006321D03*
D11*
X0131395Y0166754D03*
X0131395Y0237620D03*
X0044781Y0237620D03*
D12*
X0044781Y0166754D03*
M02*
